<svg width="48" height="48" xmlns="http://www.w3.org/2000/svg"><rect width="48" height="48" ry="6" opacity=".5" fill="#485e7f"/><path d="M24.512 11.137a12.503 12.503 0 00-12.652 9.215 1.513 1.513 0 01.196-.064 9.038 9.038 0 00-.528 14.705l.01-.01-.01.04a8.99 8.99 0 005.456 1.815h6.922l.038.038h6.948a9.038 9.038 0 005.134-16.524 12.532 12.532 0 00-3.776-6.09l-.058.057.008-.067a12.503 12.503 0 00-7.688-3.115zm-.602 5.533a6.94 6.94 0 014.415 1.546h.08a6.94 6.94 0 012.487 5.456v.694a3.475 3.475 0 110 6.95h-6.948l-.012.01v-.05h-6.948a3.455 3.455 0 01-1.428-.31l.002-.002a3.475 3.475 0 114.598-4.598l4.032-4.03a9.028 9.028 0 00-5.44-3.376c.029-.018.057-.026.08-.02a6.94 6.94 0 015.08-2.27z" fill="#fff"/></svg>