<svg width="48" height="48" xmlns="http://www.w3.org/2000/svg"><rect width="48" height="48" ry="6" opacity=".5" fill="#485e7f"/><path d="M11 8a2.993 2.993 0 00-3 3v26c0 1.662 1.338 3 3 3h26c1.662 0 3-1.338 3-3V10.996A2.993 2.993 0 0037 8zm22.114 15.579c.839 0 1.648.15 2.43.45.782.298 1.467.729 2.052 1.3l-1.663 2.025a5.9 5.9 0 00-1.41-.79 3.817 3.817 0 00-1.409-.276 2.234 2.234 0 00-1.3.34 1.047 1.047 0 00-.473.919c0 .268.095.506.28.703a2.475 2.475 0 00.767.491c.33.129.68.276 1.07.446l1.788.726a5.164 5.164 0 011.45.854c.417.34.734.756.96 1.24.228.468.34 1.028.34 1.685a3.93 3.93 0 01-.615 2.132c-.416.654-1.01 1.179-1.792 1.576a6.198 6.198 0 01-2.838.597 7.85 7.85 0 01-2.729-.491 7.101 7.101 0 01-2.41-1.531l1.662-2.048a5.91 5.91 0 001.686 1.001 5.291 5.291 0 001.878.363c.654 0 1.134-.121 1.451-.363a1.156 1.156 0 00.492-.983.952.952 0 00-.257-.703 2.014 2.014 0 00-.684-.49 22.786 22.786 0 00-1.066-.47l-1.814-.744a7.498 7.498 0 01-1.365-.813 4.142 4.142 0 01-1.047-1.24 3.829 3.829 0 01-.381-1.768c0-.767.204-1.459.616-2.071.427-.624 1.009-1.123 1.75-1.493.756-.382 1.613-.574 2.581-.574zm-9.959.257h3.133v9.172c0 .907-.162 1.75-.49 2.517a4.026 4.026 0 01-1.535 1.814c-.68.439-1.565.658-2.646.658-.967 0-1.799-.204-2.494-.616-.684-.416-1.255-1.058-1.709-1.943l2.004-1.364c.2.382.472.68.812.896.34.211.703.32 1.089.32.612 0 1.065-.188 1.364-.555.314-.37.472-1.031.472-1.984z" fill="#fff"/></svg>