<svg width="48" height="48" xmlns="http://www.w3.org/2000/svg"><rect width="48" height="48" ry="6" opacity=".5" fill="#485e7f"/><path d="M17.492 9.735a3.16 3.16 0 00-1.492.408c-.912.526-1.457 1.492-1.701 2.636-.245 1.143-.22 2.502.024 4.024.094.587.221 1.198.38 1.83-.625.177-1.219.374-1.774.586-1.44.55-2.629 1.208-3.497 1.992C8.564 21.994 8 22.949 8 24.001c0 1.054.564 2.008 1.432 2.791.868.784 2.057 1.442 3.497 1.992.555.212 1.149.407 1.775.584-.16.631-.287 1.243-.38 1.83-.244 1.521-.27 2.88-.025 4.024.244 1.143.79 2.11 1.701 2.636.912.526 2.02.514 3.133.154s2.277-1.06 3.473-2.032A21.2 21.2 0 0024 34.735c.467.454.933.87 1.394 1.245 1.196.972 2.36 1.673 3.473 2.032 1.112.36 2.221.372 3.133-.154.912-.527 1.456-1.493 1.701-2.636.245-1.144.22-2.503-.024-4.025a21.159 21.159 0 00-.38-1.829 21.089 21.089 0 001.774-.584c1.44-.55 2.629-1.208 3.497-1.992.868-.783 1.432-1.737 1.432-2.79s-.564-2.008-1.432-2.791c-.868-.784-2.058-1.442-3.498-1.992a21.161 21.161 0 00-1.774-.587c.16-.63.287-1.242.38-1.829.244-1.522.27-2.88.025-4.024-.245-1.144-.79-2.11-1.701-2.636-.912-.527-2.02-.515-3.133-.155s-2.277 1.06-3.473 2.033c-.461.374-.927.79-1.394 1.244-.467-.453-.933-.87-1.394-1.244-1.196-.972-2.36-1.673-3.473-2.033a4.83 4.83 0 00-1.641-.253zm.062 1.386c.333-.01.713.05 1.15.19.873.283 1.92.893 3.024 1.791.426.346.86.736 1.3 1.163a33.029 33.029 0 00-2.708 3.364c-1.517.14-2.95.363-4.267.66a19.6 19.6 0 01-.356-1.706c-.225-1.405-.23-2.616-.038-3.513.192-.897.55-1.44 1.036-1.72.242-.14.526-.22.858-.229zm12.892 0c.332.01.616.088.858.228.486.28.844.824 1.036 1.72.192.898.187 2.109-.038 3.514a19.6 19.6 0 01-.356 1.707 33.164 33.164 0 00-4.267-.66 33.163 33.163 0 00-2.706-3.365 19.63 19.63 0 011.299-1.163c1.104-.898 2.151-1.508 3.024-1.79.437-.142.817-.2 1.15-.19zM24 15.268a30.98 30.98 0 011.861 2.236 41.42 41.42 0 00-3.722 0A30.98 30.98 0 0124 15.268zm0 3.587c.996 0 1.97.035 2.91.106a38.778 38.778 0 011.547 2.467 38.66 38.66 0 011.36 2.574 38.89 38.89 0 01-1.36 2.573 38.796 38.796 0 01-1.547 2.465 38.853 38.853 0 01-5.82 0 38.796 38.796 0 01-1.547-2.465 38.835 38.835 0 01-1.36-2.573 38.66 38.66 0 011.36-2.574 38.871 38.871 0 011.547-2.466 38.72 38.72 0 012.91-.107zm-4.696.285a41.468 41.468 0 00-1.861 3.223 30.937 30.937 0 01-1.006-2.728 30.96 30.96 0 012.867-.495zm9.392 0c1.01.127 1.97.295 2.867.495a31.12 31.12 0 01-1.006 2.728 41.308 41.308 0 00-1.861-3.223zm-13.614.834c.4 1.29.922 2.644 1.56 4.028a33.14 33.14 0 00-1.56 4.024 19.584 19.584 0 01-1.655-.543c-1.33-.508-2.382-1.109-3.063-1.723-.68-.615-.973-1.198-.973-1.758 0-.561.292-1.144.973-1.759.681-.614 1.733-1.215 3.063-1.722.512-.196 1.065-.38 1.655-.547zm17.836 0c.59.167 1.143.35 1.655.547 1.33.507 2.382 1.108 3.063 1.722.68.615.973 1.198.973 1.759 0 .56-.292 1.143-.973 1.758-.681.614-1.733 1.215-3.063 1.723a19.49 19.49 0 01-1.655.543 33.14 33.14 0 00-1.56-4.024 33.172 33.172 0 001.56-4.028zM24 21.148a2.852 2.852 0 00-2.853 2.854A2.852 2.852 0 0024 26.852a2.852 2.852 0 002.853-2.85A2.852 2.852 0 0024 21.148zm-6.557 4.49a41.396 41.396 0 001.861 3.222 30.98 30.98 0 01-2.866-.492 30.98 30.98 0 011.005-2.73zm13.114 0c.395.937.73 1.854 1.005 2.73-.897.2-1.857.365-2.866.492a41.342 41.342 0 001.861-3.223zm-14.503 4.073c1.317.298 2.75.524 4.267.663a33.163 33.163 0 002.706 3.364c-.439.427-.873.814-1.299 1.16-1.104.898-2.151 1.509-3.024 1.791-.873.282-1.523.242-2.008-.038-.486-.28-.844-.823-1.036-1.72-.192-.897-.187-2.108.038-3.514a19.6 19.6 0 01.356-1.706zm15.892 0c.15.593.269 1.165.356 1.706.225 1.406.23 2.617.038 3.514-.192.897-.55 1.44-1.036 1.72-.485.28-1.135.32-2.008.038-.873-.282-1.92-.893-3.024-1.79a20.11 20.11 0 01-1.3-1.161c.917-.99 1.828-2.12 2.707-3.364 1.517-.14 2.95-.365 4.267-.663zm-9.807.785c.61.028 1.231.044 1.861.044.63 0 1.251-.016 1.861-.044A30.98 30.98 0 0124 32.733a30.98 30.98 0 01-1.861-2.237z" fill="#fff"/></svg>