<svg width="48" height="48" xmlns="http://www.w3.org/2000/svg"><rect width="48" height="48" ry="6" opacity=".5" fill="#485e7f"/><path fill="#fff" fill-rule="evenodd" d="M24 14.4c-4.267 0-6.933 2.133-8 6.4 1.6-2.133 3.467-2.933 5.6-2.4 1.217.304 2.087 1.188 3.05 2.165C26.22 22.157 28.034 24 32 24c4.267 0 6.933-2.133 8-6.4-1.6 2.133-3.467 2.933-5.6 2.4-1.217-.304-2.087-1.188-3.05-2.165C29.78 16.243 27.966 14.4 24 14.4zM16 24c-4.267 0-6.933 2.133-8 6.4 1.6-2.133 3.467-2.933 5.6-2.4 1.217.305 2.087 1.188 3.05 2.165C18.22 31.757 20.034 33.6 24 33.6c4.267 0 6.933-2.133 8-6.4-1.6 2.133-3.467 2.933-5.6 2.4-1.217-.304-2.087-1.188-3.05-2.165C21.78 25.843 19.966 24 16 24z" clip-rule="evenodd"/></svg>