<svg width="48" height="48" xmlns="http://www.w3.org/2000/svg"><rect width="48" height="48" ry="6" opacity=".5" fill="#485e7f"/><path d="M11 8a2.993 2.993 0 00-3 3v26c0 1.662 1.338 3 3 3h26c1.662 0 3-1.338 3-3V10.996A2.993 2.993 0 0037 8zm22.348 15.579c.84 0 1.648.15 2.43.45.783.298 1.463.729 2.049 1.3l-1.663 2.025a5.9 5.9 0 00-1.41-.79 3.81 3.81 0 00-1.406-.276 2.241 2.241 0 00-1.304.34 1.043 1.043 0 00-.468.919c0 .268.09.506.276.703a2.464 2.464 0 00.767.491c.329.129.68.276 1.066.446l1.795.726c.567.227 1.05.514 1.451.854.412.34.73.756.96 1.24.227.468.34 1.028.34 1.685 0 .767-.208 1.474-.62 2.132-.412.654-1.009 1.179-1.791 1.576a6.198 6.198 0 01-2.835.597 7.871 7.871 0 01-2.732-.491 7.109 7.109 0 01-2.411-1.531l1.663-2.048a5.91 5.91 0 001.685 1.001 5.303 5.303 0 001.879.363c.653 0 1.133-.121 1.45-.363a1.156 1.156 0 00.492-.983.952.952 0 00-.257-.703 2.003 2.003 0 00-.68-.49 22.786 22.786 0 00-1.07-.47l-1.814-.744a7.498 7.498 0 01-1.364-.813 4.198 4.198 0 01-1.047-1.24 3.829 3.829 0 01-.382-1.768c0-.767.204-1.459.616-2.071.427-.624 1.013-1.123 1.75-1.493.756-.382 1.618-.574 2.585-.574zm-16.043.257h10.801v2.645H24.29v11.263h-3.16V26.48h-3.817z" fill="#fff"/></svg>